<svg width="752" height="317" viewBox="0 0 752 317" fill="none" xmlns="http://www.w3.org/2000/svg">
<rect width="752" height="317" fill="#1E1E1E"/>
<rect width="1024" height="1024" transform="translate(-136 -353)" fill="white"/>
<path d="M20.48 248V66.24H85.504C132.864 66.24 156.416 82.368 156.416 116.672C156.416 137.92 143.104 151.744 120.064 154.048C148.224 156.352 164.096 171.712 164.096 196.544C164.096 230.08 140.288 248 95.744 248H20.48ZM53.76 219.84H96.256C116.992 219.84 130.048 211.136 130.048 194.24C130.048 177.6 117.248 168.64 96.256 168.64H53.76V219.84ZM53.76 142.528H87.552C109.312 142.528 122.368 134.336 122.368 118.72C122.368 102.336 110.08 94.4 87.552 94.4H53.76V142.528ZM195.92 66.24H228.688V212.672C228.688 219.072 232.272 222.656 238.672 222.656H248.912V248H230.224C209.744 248 195.92 235.2 195.92 213.952V66.24ZM390.906 248H360.698L360.186 226.496C352.762 244.16 337.658 251.072 319.994 251.072C290.554 251.072 274.17 230.08 274.17 199.616V112.32H306.938V188.864C306.938 211.904 313.082 224.448 330.234 224.448C347.898 224.448 358.138 211.904 358.138 188.864V112.32H390.906V248ZM416.246 180.16C416.246 137.152 442.87 109.248 483.574 109.248C518.646 109.248 546.806 133.312 547.318 181.184V189.12H450.806C452.342 211.648 464.118 225.216 483.574 225.216C495.862 225.216 507.126 218.048 511.99 206.272L545.526 208.832C537.334 234.688 512.758 251.072 483.574 251.072C442.87 251.072 416.246 223.168 416.246 180.16ZM451.062 167.36H513.526C510.966 144.064 498.166 135.104 483.574 135.104C465.398 135.104 453.622 147.136 451.062 167.36Z" fill="black"/>
<path d="M655.024 252.096C601.776 252.096 569.008 210.88 569.008 157.376C569.008 103.616 601.52 62.144 655.024 62.144C708.528 62.144 740.784 103.616 740.784 157.376C740.784 189.888 728.752 218.048 707.248 234.944L730.544 264.384H702.896L688.304 245.952C678.32 250.048 667.312 252.096 655.024 252.096ZM603.568 157.376C603.568 192.704 619.952 223.168 655.024 223.168C659.888 223.168 664.496 222.656 668.336 221.12L643.504 189.376H671.152L687.024 209.856C699.824 198.336 706.48 178.88 706.48 157.376C706.48 121.792 690.352 91.072 655.024 91.072C619.696 91.072 603.568 121.792 603.568 157.376Z" fill="#2563EB"/>
</svg>
